<svg xmlns="http://www.w3.org/2000/svg" version="1.1" xmlns:xlink="http://www.w3.org/1999/xlink" xmlns:svgjs="http://svgjs.dev/svgjs" width="2000" height="414" viewBox="0 0 2000 414"><g transform="matrix(1,0,0,1,-1.2121212121212466,-1.2342937701632195)"><svg viewBox="0 0 396 82" data-background-color="#ffffff" preserveAspectRatio="xMidYMid meet" height="414" width="2000" xmlns="http://www.w3.org/2000/svg" xmlns:xlink="http://www.w3.org/1999/xlink"><g id="tight-bounds" transform="matrix(1,0,0,1,0.2400000000000091,0.2444736452980294)"><svg viewBox="0 0 395.52 81.51105270940393" height="81.51105270940393" width="395.52"><g><svg viewBox="0 0 574.120664329045 118.31811218568664" height="81.51105270940393" width="395.52"><g><rect width="10.616964638006964" height="118.31811218568664" x="140.19059854442298" y="0" fill="#111111" opacity="1" stroke-width="0" stroke="transparent" fill-opacity="1" class="rect-yte-0" data-fill-palette-color="primary" rx="1%" id="yte-0" data-palette-color="#111111"></rect></g><g transform="matrix(1,0,0,1,178.60066432904506,0.2943236621534453)"><svg viewBox="0 0 395.52 117.72946486137975" height="117.72946486137975" width="395.52"><g id="textblocktransform"><svg viewBox="0 0 395.52 117.72946486137975" height="117.72946486137975" width="395.52" id="textblock"><g><svg viewBox="0 0 395.52 117.72946486137975" height="117.72946486137975" width="395.52"><g transform="matrix(1,0,0,1,0,0)"><svg width="395.52" viewBox="2.98 -33.28 113.58999999999999 33.82" height="117.72946486137975" data-palette-color="#111111"><path d="M25.46-28.98Q26.29-28.98 26.65-28.6 27-28.22 27-27.32L27-27.32 27-18.12Q27-17.26 26.59-16.89 26.17-16.53 25.17-16.53L25.17-16.53Q24.17-16.53 23.75-16.89 23.34-17.26 23.34-18.12L23.34-18.12 23.34-25.66 16.82-25.66 16.82-3.32 22.58-3.32Q23.41-3.32 23.77-2.94 24.12-2.56 24.12-1.66L24.12-1.66Q24.12-0.76 23.77-0.38 23.41 0 22.58 0L22.58 0 7.4 0Q6.57 0 6.21-0.38 5.86-0.76 5.86-1.66L5.86-1.66Q5.86-2.56 6.21-2.94 6.57-3.32 7.4-3.32L7.4-3.32 13.16-3.32 13.16-25.66 6.64-25.66 6.64-18.12Q6.64-17.26 6.23-16.89 5.81-16.53 4.81-16.53L4.81-16.53Q3.81-16.53 3.39-16.89 2.98-17.26 2.98-18.12L2.98-18.12 2.98-27.32Q2.98-28.22 3.33-28.6 3.69-28.98 4.52-28.98L4.52-28.98 25.46-28.98ZM45.85-22.56Q46.68-22.56 47.03-22.18 47.39-21.8 47.39-20.9L47.39-20.9 47.39-3.32 55.22-3.32Q56.05-3.32 56.41-2.94 56.76-2.56 56.76-1.66L56.76-1.66Q56.76-0.76 56.41-0.38 56.05 0 55.22 0L55.22 0 36.08 0Q35.25 0 34.9-0.38 34.54-0.76 34.54-1.66L34.54-1.66Q34.54-2.56 34.9-2.94 35.25-3.32 36.08-3.32L36.08-3.32 43.72-3.32 43.72-19.24 37.55-19.24Q36.72-19.24 36.36-19.62 36.01-20 36.01-20.9L36.01-20.9Q36.01-21.8 36.36-22.18 36.72-22.56 37.55-22.56L37.55-22.56 45.85-22.56ZM45.07-33.28Q46.41-33.28 46.9-32.92 47.39-32.57 47.39-31.69L47.39-31.69 47.39-28.52Q47.39-27.64 46.9-27.28 46.41-26.93 45.07-26.93L45.07-26.93Q43.72-26.93 43.23-27.28 42.75-27.64 42.75-28.52L42.75-28.52 42.75-31.69Q42.75-32.57 43.23-32.92 43.72-33.28 45.07-33.28L45.07-33.28ZM89.03-3.32Q89.86-3.32 90.22-2.94 90.57-2.56 90.57-1.66L90.57-1.66Q90.57-0.76 90.22-0.38 89.86 0 89.03 0L89.03 0 85.4 0Q84.57 0 84.21-0.38 83.86-0.76 83.86-1.66L83.86-1.66 83.86-16.11Q83.86-17.8 83.31-18.64 82.76-19.48 81.54-19.48L81.54-19.48Q80.39-19.48 79.41-18.42 78.44-17.36 77.86-15.47 77.29-13.57 77.29-11.16L77.29-11.16 77.29-3.32 78.68-3.32Q79.51-3.32 79.87-2.94 80.22-2.56 80.22-1.66L80.22-1.66Q80.22-0.76 79.87-0.38 79.51 0 78.68 0L78.68 0 75.17 0Q74.34 0 73.98-0.38 73.63-0.76 73.63-1.66L73.63-1.66 73.63-16.11Q73.63-17.8 73.08-18.64 72.53-19.48 71.31-19.48L71.31-19.48Q70.16-19.48 69.18-18.42 68.21-17.36 67.63-15.47 67.06-13.57 67.06-11.16L67.06-11.16 67.06-3.32 68.33-3.32Q69.16-3.32 69.51-2.94 69.87-2.56 69.87-1.66L69.87-1.66Q69.87-0.76 69.51-0.38 69.16 0 68.33 0L68.33 0 61.4 0Q60.57 0 60.21-0.38 59.86-0.76 59.86-1.66L59.86-1.66Q59.86-2.56 60.21-2.94 60.57-3.32 61.4-3.32L61.4-3.32 63.4-3.32 63.4-19.24 61.4-19.24Q60.57-19.24 60.21-19.62 59.86-20 59.86-20.9L59.86-20.9Q59.86-21.8 60.21-22.18 60.57-22.56 61.4-22.56L61.4-22.56 65.03-22.56Q65.86-22.56 66.22-22.18 66.57-21.8 66.57-20.9L66.57-20.9 66.57-18.48Q67.62-20.78 69.09-21.94 70.55-23.1 72.26-23.1L72.26-23.1Q73.92-23.1 75.17-21.97 76.41-20.85 76.85-18.68L76.85-18.68Q79.02-23.1 82.47-23.1L82.47-23.1Q83.91-23.1 85.04-22.38 86.18-21.66 86.85-20.18 87.52-18.7 87.52-16.55L87.52-16.55 87.52-3.32 89.03-3.32ZM105.14-23.1Q108.68-23.1 111.19-21.67 113.69-20.24 115.03-17.71 116.37-15.19 116.57-11.89L116.57-11.89Q116.57-11.06 116.22-10.72 115.86-10.38 115.03-10.38L115.03-10.38 97.36-10.38Q97.53-6.74 99.52-4.87 101.51-3 105.14-3L105.14-3Q107.39-3 109.59-3.58 111.78-4.15 113.44-5.1L113.44-5.1Q113.86-5.32 114.2-5.32L114.2-5.32Q115.06-5.32 115.59-4.03L115.59-4.03Q115.81-3.52 115.81-3.1L115.81-3.1Q115.81-2.12 114.74-1.59L114.74-1.59Q112.86-0.63 110.3-0.05 107.73 0.54 105.14 0.54L105.14 0.54Q101.46 0.54 98.85-0.88 96.23-2.29 94.87-4.96 93.5-7.62 93.5-11.28L93.5-11.28Q93.5-14.77 94.99-17.46 96.48-20.14 99.11-21.62 101.75-23.1 105.14-23.1L105.14-23.1ZM105.14-19.56Q102.14-19.56 100.18-18.03 98.21-16.5 97.6-13.79L97.6-13.79 112.52-13.79Q112-16.6 110.16-18.08 108.32-19.56 105.14-19.56L105.14-19.56Z" opacity="1" transform="matrix(1,0,0,1,0,0)" fill="#111111" class="wordmark-text-0" data-fill-palette-color="primary" id="text-0"></path></svg></g></svg></g></svg></g></svg></g><g transform="matrix(1,0,0,1,0,0.2943236621534382)"><svg viewBox="0 0 112.39749739780788 117.72946486137977" height="117.72946486137977" width="112.39749739780788"><g><svg version="1.0" xmlns="http://www.w3.org/2000/svg" xmlns:xlink="http://www.w3.org/1999/xlink" x="0" y="0" viewBox="0 0 95.471 100" enable-background="new 0 0 95.471 100" xml:space="preserve" id="icon-0" width="112.39749739780788" height="117.72946486137977" class="icon-icon-0" data-fill-palette-color="accent"><path d="M47.735 0C47.652 2.825 45.997 13.412 27.936 30.934 10.554 47.797 2.439 49.824 0 50 2.439 50.178 10.554 52.204 27.936 69.066 45.997 86.589 47.652 97.177 47.735 100 47.818 97.177 49.474 86.589 67.533 69.066 84.917 52.204 93.031 50.178 95.471 50 93.032 49.824 84.917 47.797 67.533 30.934 49.475 13.412 47.819 2.825 47.735 0" fill="#111111" data-fill-palette-color="accent"></path></svg></g></svg></g></svg></g><defs></defs></svg><rect width="395.52" height="81.51105270940393" fill="none" stroke="none" visibility="hidden"></rect></g></svg></g></svg>